<svg xmlns="http://www.w3.org/2000/svg"  viewBox="0 0 64 64" width="64px" height="64px"><path fill="#acb7d0" d="M48.231,25.102l-0.012-1.79C48.097,15.372,41.627,9,33.687,9h-4.153C21.507,9,15,15.507,15,23.534 v34.338C15,60.704,23.308,63,35.769,63c9.692,0,14.172-1,14.172-1v-4c0-1.282-2.118-1-2.118-1V46 C49.705,45.709,51,45.051,51,45.051v-8.41L48.231,25.102z"/><path fill="#8d6c9f" d="M35.77,64C25.728,64,14,62.396,14,57.872V23.533C14,14.968,20.968,8,29.533,8h4.153 c8.436,0,15.403,6.862,15.532,15.296l0.011,1.685l2.743,11.427C51.991,36.483,52,36.562,52,36.641v8.41 c0,0.376-0.211,0.721-0.547,0.892c-0.05,0.025-1.077,0.542-2.63,0.887v9.172c0.5,0.058,1.064,0.214,1.49,0.586 c0.411,0.359,0.628,0.849,0.628,1.413v4c0,0.469-0.325,0.874-0.782,0.976C49.972,63.018,45.461,64,35.77,64z M29.533,10 C22.071,10,16,16.071,16,23.533v34.339C16,59.267,21.97,62,35.77,62c7.201,0,11.514-0.563,13.172-0.834v-3.104 c-0.187-0.078-0.632-0.114-0.99-0.069c-0.283,0.033-0.572-0.053-0.788-0.242c-0.215-0.19-0.34-0.463-0.34-0.75V46 c0-0.493,0.359-0.913,0.847-0.988c1-0.154,1.824-0.425,2.33-0.619v-7.634l-2.742-11.424c-0.018-0.074-0.026-0.15-0.027-0.227 l-0.012-1.79C47.106,15.979,41.036,10,33.687,10H29.533z"/><path fill="#b5c4e0" d="M26.037,39C23.819,39,21,36.164,21,32.667v-6.333c0-3.467,2.78-6.319,6.227-6.333 c3.832-0.015,5.069,1.267,11.403,1.267c5.037,0,8.815-1.267,8.815-1.267l3.379,1.7C53.383,22.987,55,25.619,55,28.497v5.436 C55,36.731,52.745,39,49.963,39H26.037z"/><path fill="#8d6c9f" d="M21,33c-0.553,0-1-0.447-1-1v-2c0-0.553,0.447-1,1-1s1,0.447,1,1v2C22,32.553,21.553,33,21,33z"/><path fill="#8d6c9f" d="M49.963,40H26.037c-1.614,0-3.302-0.958-4.3-2.441c-0.991-1.472-0.83-1.764-0.644-2.104 c0.181-0.327,0.521-0.519,0.903-0.518c0.354,0.01,0.702,0.262,0.876,0.575l0.001-0.001c0.005,0.01,0.012,0.023,0.02,0.039 c0.002,0.004,0.003,0.007,0.005,0.01c0.082,0.165,0.304,0.593,0.497,0.881C24.116,37.513,25.271,38,26.037,38h23.926 C52.188,38,54,36.176,54,33.934v-5.437c0-2.517-1.39-4.778-3.626-5.903l-3.02-1.52c-1.132,0.331-4.482,1.192-8.725,1.192 c-3.65,0-5.644-0.411-7.401-0.773c-1.297-0.269-2.427-0.53-3.998-0.493c-2.783,0.012-5.077,2.23-5.223,5.052 c-0.029,0.552-0.506,0.966-1.051,0.947c-0.552-0.028-0.976-0.499-0.947-1.051c0.2-3.88,3.368-6.933,7.213-6.948 c1.791-0.023,3.062,0.256,4.41,0.534c1.664,0.343,3.551,0.732,6.997,0.732c4.798,0,8.461-1.203,8.497-1.215 c0.254-0.083,0.529-0.063,0.767,0.055l3.379,1.7C54.188,22.273,56,25.22,56,28.497v5.437C56,37.278,53.292,40,49.963,40z"/><path fill="#f9e3ae" d="M26.239,57.446c0.018,0.003,0.034,0.005,0.05,0.009C29.06,57.8,32.274,58,35.85,58 c6.367,0,10.272-0.569,12.15-0.94V46c-2.165,0.336-5.685,0.704-10.8,0.704c-3.55,0-6.742-0.197-9.5-0.537c-0.015,0-0.031,0-0.046,0 c0,0-0.309-0.013-0.537-0.013c-3.379,0-6.117,2.547-6.117,5.687C21,54.703,23.28,57.049,26.239,57.446z"/><path fill="#8d6c9f" d="M35.85,59c-3.487,0-6.746-0.186-9.685-0.553l-0.083-0.013C22.613,57.957,20,55.126,20,51.841 c0-3.687,3.192-6.687,7.117-6.687c0.245,0,0.578,0.014,0.578,0.014l0.127,0.007c2.852,0.352,6.007,0.529,9.378,0.529 c5.112,0,8.611-0.376,10.646-0.692L49,44.833v13.048l-0.806,0.159C46.386,58.398,42.377,59,35.85,59z M26.449,56.468 C29.297,56.82,32.459,57,35.85,57c5.512,0,9.148-0.434,11.15-0.773v-9.075c-2.175,0.28-5.417,0.553-9.8,0.553 c-3.434,0-6.655-0.182-9.575-0.539c-0.126-0.003-0.341-0.011-0.508-0.011c-2.821,0-5.117,2.103-5.117,4.687 c0,2.296,1.88,4.279,4.372,4.614L26.449,56.468z"/><path fill="#acb7d0" d="M51,26c2.209,0,4,1.94,4,4.333v3.171C55,36.54,52.914,39,50.341,39H31c-2.209,0-4-1.94-4-4.333 v-4.333C27,27.94,28.791,26,31,26H51"/><path fill="#8d6c9f" d="M50.341,40H31c-2.757,0-5-2.393-5-5.333v-4.334C26,27.393,28.243,25,31,25h20 c2.757,0,5,2.393,5,5.333v3.172C56,37.086,53.461,40,50.341,40z M31,27c-1.654,0-3,1.495-3,3.333v4.334C28,36.505,29.346,38,31,38 h19.341C52.358,38,54,35.983,54,33.505v-3.172C54,28.495,52.654,27,51,27H31z"/><circle cx="43.5" cy="32.5" r="6.5" fill="#ffeb9b"/><path fill="#8d6c9f" d="M43.5,40c-4.136,0-7.5-3.364-7.5-7.5s3.364-7.5,7.5-7.5s7.5,3.364,7.5,7.5S47.636,40,43.5,40z M43.5,27c-3.032,0-5.5,2.468-5.5,5.5s2.468,5.5,5.5,5.5s5.5-2.468,5.5-5.5S46.532,27,43.5,27z"/><circle cx="33.5" cy="32.5" r="6.5" fill="#ffeb9b"/><path fill="#8d6c9f" d="M33.5,40c-4.136,0-7.5-3.364-7.5-7.5s3.364-7.5,7.5-7.5s7.5,3.364,7.5,7.5S37.636,40,33.5,40z M33.5,27c-3.032,0-5.5,2.468-5.5,5.5s2.468,5.5,5.5,5.5s5.5-2.468,5.5-5.5S36.532,27,33.5,27z"/><g><path fill="#8d6c9f" d="M35,50c-0.552,0-1,0.448-1,1v2c0,0.552,0.448,1,1,1s1-0.448,1-1v-2C36,50.448,35.552,50,35,50z M30,54c0.552,0,1-0.448,1-1v-2c0-0.552-0.448-1-1-1s-1,0.448-1,1v2C29,53.552,29.448,54,30,54z M25,54c0.552,0,1-0.448,1-1v-2 c0-0.552-0.448-1-1-1s-1,0.448-1,1v2C24,53.552,24.448,54,25,54z M45,54c0.552,0,1-0.448,1-1v-2c0-0.552-0.448-1-1-1s-1,0.448-1,1 v2C44,53.552,44.448,54,45,54z M40,50c-0.552,0-1,0.448-1,1v2c0,0.552,0.448,1,1,1s1-0.448,1-1v-2C41,50.448,40.552,50,40,50z"/></g><g><path fill="#8d6c9f" d="M31.447,33.602H30.16c-0.355,0-0.644-0.288-0.644-0.644v-1.287c0-0.355,0.288-0.644,0.644-0.644 h1.287c0.355,0,0.644,0.288,0.644,0.644v1.287C32.09,33.314,31.802,33.602,31.447,33.602z"/></g><g><path fill="#8d6c9f" d="M44.031,33.602h-1.287c-0.355,0-0.644-0.288-0.644-0.644v-1.287c0-0.355,0.288-0.644,0.644-0.644 h1.287c0.355,0,0.644,0.288,0.644,0.644v1.287C44.674,33.314,44.386,33.602,44.031,33.602z"/></g><g><rect width="5" height="4" x="29" y="1" fill="#ced9ed"/><path fill="#8d6c9f" d="M34,6h-5c-0.553,0-1-0.447-1-1V1c0-0.553,0.447-1,1-1h5c0.553,0,1,0.447,1,1v4 C35,5.553,34.553,6,34,6z M30,4h3V2h-3V4z"/></g><g><path fill="#ced9ed" d="M31.499,11c-2.717,0-4.248-0.428-4.981-0.724c-0.323-0.13-0.562-0.568-0.511-1.048 C26.264,6.832,27.697,5,29.425,5h4.151c1.728,0,3.161,1.832,3.418,4.228c0.051,0.478-0.188,0.918-0.511,1.048 C35.748,10.572,34.216,11,31.499,11z"/><path fill="#8d6c9f" d="M31.499,12c-2.797,0-4.456-0.434-5.355-0.797c-0.75-0.301-1.227-1.177-1.131-2.081 C25.331,6.153,27.187,4,29.425,4h4.15c2.238,0,4.094,2.153,4.412,5.121c0.097,0.905-0.381,1.78-1.133,2.083 C35.955,11.567,34.295,12,31.499,12z M27.003,9.392C27.658,9.638,29.042,10,31.499,10c2.458,0,3.843-0.363,4.498-0.608 C36,9.376,36.001,9.355,35.999,9.333C35.799,7.465,34.733,6,33.575,6h-4.15c-1.158,0-2.224,1.465-2.424,3.334 C26.999,9.356,27,9.376,27.003,9.392z M36.107,9.349C36.107,9.35,36.106,9.35,36.107,9.349L36.107,9.349z M26.892,9.349 L26.892,9.349L26.892,9.349z"/></g></svg>