<svg xmlns="http://www.w3.org/2000/svg"  viewBox="0 0 64 64" width="64px" height="64px"><path fill="#efd8be" d="M52,55c-1.11,0.336-2.501,0-6,0c-1.123,0-1.969,0.129-3,0h-1c-5,0-1.651,1.795-3.361,3.125 c-1.671,1.305-2.611,2.7-2.611,3.875H20.361c0-6.458,1.739-9.06,1.306-14.208c-0.421-4.994,0-5.167,0-5.167 s-2.611-2.583-2.611-9.042c0-5.167,0-15.5,0-15.5h26.111v7.75c0,1.292,2.128,1.602,2.859,2.157c0.64,0.478,1.057,1.188,1.057,1.989 c0,1.279-1.044,2.312-2.337,2.312h-1.58l1.641,7.588L48,45.208l1.756,2.583L52,53C52.431,53.53,52.653,54.793,52,55z"/><path fill="#efd8be" d="M45.167,19.083v7.75c0,1.292,2.128,1.602,2.859,2.157c0.64,0.478,1.057,1.188,1.057,1.989 c0,1.279-1.044,2.312-2.337,2.312h-1.58l1.641,7.588L48,46.208l1.756,2.583L52,52c0.66,1.265,0.461,2.513-1,3c-6,2-12,0-12,0 c-1,1,0.71,2.67-1,4c-1.671,1.305-1.972,2.825-1.972,4H20.361c0-6.458,1.868-13.063,1.868-18.229"/><path fill="#8d6c9f" d="M36.027,64H20.361c-0.553,0-1-0.447-1-1c0-3.483,0.521-6.932,1.023-10.266 c0.435-2.879,0.845-5.6,0.845-7.964c0-0.553,0.447-1,1-1s1,0.447,1,1c0,2.515-0.421,5.307-0.867,8.263 c-0.443,2.936-0.899,5.961-0.986,8.967h13.725c0.229-1.511,0.995-2.781,2.284-3.788c0.482-0.375,0.468-0.669,0.355-1.462 c-0.101-0.703-0.237-1.667,0.553-2.457c0.267-0.267,0.659-0.362,1.022-0.242c0.058,0.019,5.771,1.863,11.368,0.001 c0.336-0.112,0.548-0.271,0.629-0.472c0.103-0.253,0.039-0.639-0.172-1.063l-3.968-5.746c-0.07-0.104-0.121-0.222-0.148-0.344 l-1.192-5.328l-1.643-7.596c-0.063-0.295,0.01-0.604,0.199-0.839s0.476-0.372,0.778-0.372h1.579c0.737,0,1.337-0.589,1.337-1.312 c0-0.607-0.411-1.005-0.656-1.188c-0.128-0.097-0.473-0.239-0.749-0.354c-1-0.414-2.511-1.04-2.511-2.604v-7.75 c0-0.553,0.447-1,1-1s1,0.447,1,1v7.75c0,0.228,0.927,0.611,1.276,0.756c0.442,0.184,0.86,0.356,1.188,0.605 c0.92,0.688,1.452,1.704,1.452,2.785c0,1.826-1.497,3.312-3.337,3.312h-0.34l2.528,11.512l1.648,2.426l2.236,3.197 c0.024,0.035,0.047,0.072,0.067,0.11c0.512,0.981,0.611,1.974,0.28,2.793c-0.214,0.527-0.708,1.237-1.851,1.618 c-4.838,1.613-9.605,0.778-11.629,0.281c0.009,0.074,0.021,0.154,0.032,0.239c0.118,0.829,0.315,2.216-1.105,3.32 c-1.422,1.11-1.587,2.364-1.587,3.211C37.027,63.553,36.58,64,36.027,64z"/><path fill="#f283a5" d="M46,2v9c0,0-2.068-6.448-9.972-10C36.028,1,38,5.649,38,11c0,0-2.239-2-9-2c-8.113,0-11,5-11,5 s-2.944-0.649-7-6c0,4.013,3,9,3,9l-8-1c5.105,1.325,6,5,6,5s-2,2.833-2,8c0,8.026,7.75,12.042,7.75,12.042 c4.056,0,4.479-3.08,4.479-3.08L24,38c0-9.042-2-11-2-11l5,1c0,0-0.458-3.547-4-6c13.522,0,22,3,22,3c2.611,0,8-1.649,8-7 C53,11.31,46,2,46,2z"/><path fill="#f7a1c8" d="M36.973,15.241C31.069,14.071,28.301,11.151,21,17c-0.134,0.107-0.306,0.179-0.501,0.223 c-1.592,0.365-2.912-1.313-2.368-2.854c0.243-0.69,0.68-1.275,1.356-1.613L27,9l9.454,1.537C37.928,10.805,39,12.089,39,13.587v0 C39,14.723,38.087,15.462,36.973,15.241z"/><path fill="#e2e9f7" d="M39.944,35.5c0-3.038,2.475-5.5,5.528-5.5S51,32.462,51,35.5S48.525,41,45.472,41"/><path fill="#8d6c9f" d="M45.473,42c-0.553,0-1-0.447-1-1s0.447-1,1-1C47.969,40,50,37.981,50,35.5S47.969,31,45.473,31 c-2.497,0-4.528,2.019-4.528,4.5c0,0.553-0.447,1-1,1s-1-0.447-1-1c0-3.584,2.929-6.5,6.528-6.5S52,31.916,52,35.5 S49.072,42,45.473,42z"/><circle cx="47.5" cy="35.5" r="1.5" fill="#8d6c9f"/><path fill="#8d6c9f" d="M17.75,42.042c-0.16,0-0.318-0.038-0.46-0.112C16.951,41.755,9,37.536,9,29 c0-4.286,1.309-7.076,1.9-8.12c-0.358-0.852-1.591-2.987-5.151-3.912c-0.511-0.132-0.83-0.638-0.731-1.156 c0.1-0.517,0.58-0.863,1.106-0.804l6.084,0.761C11.28,13.877,10,10.765,10,8c0-0.43,0.274-0.811,0.682-0.948 c0.405-0.136,0.856,0.002,1.115,0.344c2.693,3.554,4.848,4.91,5.84,5.391C18.824,11.293,22.213,8,29,8 c3.959,0,6.462,0.658,7.931,1.267c-0.34-4.32-1.808-7.837-1.824-7.877c-0.16-0.378-0.072-0.816,0.222-1.104 c0.295-0.286,0.732-0.367,1.109-0.197c4.338,1.949,7.002,4.719,8.562,6.94V2c0-0.431,0.275-0.812,0.684-0.948 c0.405-0.138,0.857,0.003,1.115,0.348C47.094,1.79,54,11.057,54,18c0,6.045-6.063,8-9,8c-0.113,0-0.227-0.02-0.333-0.057 c-0.078-0.028-7.384-2.557-19.021-2.904c1.996,2.315,2.33,4.705,2.347,4.833c0.041,0.319-0.074,0.64-0.31,0.859 c-0.237,0.219-0.563,0.308-0.879,0.249l-2.997-0.6C24.397,30.082,25,33.033,25,38c0,0.269-0.108,0.526-0.301,0.715 c-0.191,0.188-0.452,0.277-0.721,0.285l-1.003-0.021C22.418,40.347,20.91,42.042,17.75,42.042z M11.04,17.638 c1.517,1.51,1.906,3.021,1.932,3.126c0.068,0.28,0.012,0.577-0.154,0.813C12.802,21.6,11,24.256,11,29 c0,6.594,5.819,10.343,7.003,11.037c2.809-0.107,3.201-2.002,3.237-2.224c0.08-0.484,0.501-0.852,0.989-0.852 c0.008,0,0.015,0,0.021,0l0.74,0.017c-0.134-7.398-1.701-9.272-1.718-9.292c-0.282-0.322-0.341-0.802-0.127-1.173 c0.214-0.372,0.628-0.58,1.05-0.494l3.388,0.678c-0.452-1.1-1.361-2.634-3.153-3.875c-0.359-0.249-0.516-0.703-0.385-1.12 C22.176,21.284,22.562,21,23,21c12.643,0,20.843,2.558,22.158,2.997C47.1,23.936,52,22.762,52,18c0-4.184-2.985-9.585-5-12.753V11 c0,0.492-0.358,0.912-0.846,0.988c-0.479,0.072-0.955-0.213-1.106-0.683c-0.017-0.052-1.651-4.87-7.258-8.257 C38.356,4.979,39,7.86,39,11c0,0.395-0.231,0.752-0.592,0.913c-0.358,0.16-0.78,0.096-1.074-0.167C37.324,11.738,35.177,10,29,10 c-7.383,0-10.027,4.321-10.137,4.505c-0.221,0.372-0.659,0.563-1.078,0.472c-0.27-0.06-2.278-0.586-5.185-3.564 c0.832,2.679,2.236,5.039,2.257,5.073c0.196,0.327,0.189,0.739-0.02,1.061c-0.208,0.32-0.574,0.493-0.962,0.446L11.04,17.638z"/><path fill="#efd8be" d="M24.195,44.771c-2.163,0-6.445-1.589-6.445-3.729s1.427-3.875,3.59-3.875 c1.274,0,3.183,3.078,3.838,3.713"/><path fill="#efd8be" d="M44,47c0,0,2.533,0,4,0s3-1.533,3-3s-1.533-3-3-3h-3"/><path fill="#8d6c9f" d="M48,48h-4c-0.553,0-1-0.447-1-1s0.447-1,1-1h4c0.916,0,2-1.084,2-2s-1.084-2-2-2h-3 c-0.553,0-1-0.447-1-1s0.447-1,1-1h3c2.019,0,4,1.981,4,4S50.019,48,48,48z"/><path fill="#8d6c9f" d="M44.842,41.88c-0.412,0-0.799-0.257-0.943-0.668c-0.65-1.85-2.459-3.045-4.606-3.045 c-0.553,0-1-0.447-1-1s0.447-1,1-1c3.009,0,5.558,1.72,6.493,4.381c0.184,0.521-0.091,1.092-0.611,1.275 C45.063,41.862,44.952,41.88,44.842,41.88z"/><circle cx="35" cy="35" r="6" fill="#e2e9f7"/><path fill="#8d6c9f" d="M35,42c-3.859,0-7-3.141-7-7s3.141-7,7-7s7,3.141,7,7S38.859,42,35,42z M35,30c-2.757,0-5,2.243-5,5 s2.243,5,5,5s5-2.243,5-5S37.757,30,35,30z"/><circle cx="36.5" cy="35.5" r="1.5" fill="#8d6c9f"/><g><path fill="#8d6c9f" d="M22.229,45.771c-2.592,0-5.479-1.942-5.479-4.729c0-2.779,1.974-4.875,4.59-4.875 c1.324,0,2.402,0.189,3.356,1.115c0.396,0.385,0.406,1.018,0.021,1.414c-0.386,0.396-1.019,0.406-1.414,0.021 c-0.377-0.365-0.783-0.551-1.964-0.551c-1.524,0-2.59,1.183-2.59,2.875c0,1.537,1.87,2.729,3.479,2.729c0.553,0,1,0.447,1,1 S22.782,45.771,22.229,45.771z"/></g><g><path fill="#8d6c9f" d="M28,53c-0.553,0-1-0.447-1-1s0.447-1,1-1c1.903,0,2-1.666,2-2c0-0.553,0.447-1,1-1s1,0.447,1,1 C32,50.607,30.935,53,28,53z"/></g><g><path fill="#8d6c9f" d="M22.772,17.945c-0.323,0-0.641-0.156-0.833-0.445l-1.109-1.663 c-0.307-0.459-0.183-1.08,0.277-1.387c0.458-0.307,1.081-0.183,1.387,0.277l1.109,1.663c0.307,0.459,0.183,1.08-0.277,1.387 C23.156,17.891,22.963,17.945,22.772,17.945z"/><path fill="#8d6c9f" d="M26.585,16.24c-0.444,0-0.851-0.299-0.967-0.749l-0.501-1.936 c-0.139-0.535,0.183-1.081,0.717-1.219c0.533-0.145,1.081,0.183,1.219,0.717l0.501,1.936c0.139,0.535-0.183,1.081-0.717,1.219 C26.753,16.23,26.668,16.24,26.585,16.24z"/><path fill="#8d6c9f" d="M30.746,15.9c-0.028,0-0.057-0.001-0.086-0.004c-0.55-0.046-0.958-0.53-0.911-1.081l0.169-1.992 c0.047-0.55,0.523-0.961,1.081-0.911c0.55,0.046,0.958,0.53,0.911,1.081l-0.169,1.992C31.697,15.507,31.261,15.9,30.746,15.9z"/><path fill="#8d6c9f" d="M34.87,16.889c-0.117,0-0.237-0.021-0.354-0.064c-0.517-0.195-0.777-0.772-0.582-1.289 l0.707-1.871c0.196-0.517,0.773-0.777,1.289-0.582c0.517,0.195,0.777,0.772,0.582,1.289l-0.707,1.871 C35.654,16.643,35.273,16.889,34.87,16.889z"/></g><g><path fill="#8d6c9f" d="M39,56c-0.104,0-0.211-0.017-0.316-0.052c-0.452-0.15-0.859-0.278-1.237-0.397 c-2.195-0.69-3.521-1.106-7.046-3.751c-0.442-0.331-0.532-0.958-0.2-1.399c0.331-0.442,0.959-0.53,1.399-0.2 c3.252,2.438,4.387,2.795,6.447,3.443c0.388,0.122,0.805,0.253,1.27,0.408c0.523,0.174,0.807,0.74,0.632,1.265 C39.809,55.735,39.419,56,39,56z"/></g></svg>