<svg xmlns="http://www.w3.org/2000/svg"  viewBox="0 0 64 64" width="64px" height="64px"><path fill="#efd8be" d="M52.955,43.904c0,3.706,2.682,5.243,2.682,7.611H46.25V62H27.477c0,0,1.341-3.958,1.341-6.765 C28.818,52.529,28,51,28,51l-4.545-3.883c0,0-5.364-4.059-5.364-14.883s5.648-17.589,17.432-17.589 c16.091,0,17.432,14.883,17.432,17.589V43.904z"/><path fill="#8d6c9f" d="M46.25,63H27.478c-0.322,0-0.625-0.155-0.812-0.417s-0.238-0.599-0.135-0.903 c0.013-0.038,1.288-3.839,1.288-6.444c0-1.931-0.457-3.198-0.634-3.617l-4.38-3.74c-0.189-0.142-5.714-4.452-5.714-15.645 c0-11.987,6.546-18.589,18.432-18.589c14.579,0,18.432,12.159,18.432,18.589v11.67c0,1.784,0.724,2.998,1.424,4.172 c0.619,1.038,1.259,2.112,1.259,3.439c0,0.553-0.447,1-1,1H47.25V62C47.25,62.553,46.803,63,46.25,63z M28.829,61H45.25v-9.485 c0-0.553,0.447-1,1-1h8.169c-0.178-0.439-0.45-0.896-0.759-1.415c-0.76-1.274-1.706-2.861-1.706-5.196v-11.67 c0-0.678-0.187-16.589-16.432-16.589c-10.75,0-16.432,5.736-16.432,16.589c0,10.127,4.921,14.051,4.971,14.09l4.588,3.916 c0.095,0.081,0.174,0.179,0.232,0.289c0.038,0.071,0.937,1.784,0.937,4.707C29.818,57.166,29.241,59.547,28.829,61z"/><path fill="#f283a5" d="M53.793,50c-1.509,0-2.347,1.6-3.185,1.6c-1.313,0-1.676-1.6-4.358-1.6 c-4.023,0-5.364,3.2-9.386,3.2c1.341,2.4,4.693,4.8,8.716,4.8c2.682,0,3.352-3.2,3.352-3.2s0.838,0,1.341,0 c2.682,0,5.364-0.4,5.364-2.8C55.636,50.8,55.134,50,53.793,50z"/><path fill="#8d6c9f" d="M45.579,59c-4.549,0-8.159-2.754-9.589-5.312c-0.173-0.311-0.169-0.688,0.011-0.994 c0.18-0.307,0.508-0.494,0.862-0.494c1.736,0,2.869-0.676,4.182-1.459C42.413,49.925,43.963,49,46.25,49 c1.898,0,2.865,0.691,3.572,1.195c0.41,0.294,0.585,0.404,0.786,0.404c0.035-0.027,0.312-0.252,0.494-0.401 c0.62-0.506,1.47-1.198,2.69-1.198c1.78,0,2.844,1.121,2.844,3c0,3.8-4.79,3.8-6.364,3.8h-0.599C49.143,57.202,47.872,59,45.579,59 z M38.681,53.992C40.193,55.628,42.728,57,45.579,57c1.849,0,2.369-2.381,2.374-2.405c0.097-0.463,0.505-0.795,0.979-0.795h1.341 c4.364,0,4.364-1.262,4.364-1.8c0-0.933-0.318-1-0.844-1c-0.509,0-0.955,0.363-1.427,0.749c-0.514,0.418-1.044,0.851-1.758,0.851 c-0.861,0-1.438-0.412-1.948-0.776C48.067,51.399,47.507,51,46.25,51c-1.735,0-2.868,0.676-4.181,1.459 C41.098,53.038,40.034,53.673,38.681,53.992z"/><path fill="#b6b6ef" d="M20.348,12.857c0,0-2.257-4.857-8.491-4.857C4.465,8,2,14.711,2,14.711s2.682-1.342,5.364-1.342 c0,0-5.364,2.684-5.364,12.845c0,8.501,6.705,15.339,6.705,23.392C8.705,54.974,5.753,59,5.753,59s16.36,0,20.383-9.395"/><path fill="#8d6c9f" d="M5.753,60c-0.376,0-0.72-0.212-0.891-0.547s-0.139-0.738,0.083-1.043 c0.027-0.038,2.759-3.849,2.759-8.805c0-3.76-1.554-7.262-3.198-10.969C2.782,34.751,1,30.733,1,26.214 c0-5.755,1.654-9.266,3.215-11.297c-1.035,0.327-1.755,0.682-1.769,0.688c-0.368,0.182-0.809,0.122-1.113-0.149 c-0.305-0.273-0.413-0.705-0.271-1.09C1.088,14.293,3.859,7,11.857,7c6.793,0,9.294,5.214,9.397,5.437 c0.232,0.5,0.015,1.095-0.486,1.328c-0.5,0.232-1.093,0.016-1.326-0.482C19.356,13.103,17.338,9,11.857,9 C7.9,9,5.51,11.102,4.213,12.831c0.939-0.257,2.039-0.463,3.15-0.463c0.464,0,0.866,0.318,0.974,0.771 c0.106,0.451-0.111,0.916-0.526,1.124C7.621,14.361,3,16.88,3,26.214c0,4.096,1.695,7.917,3.334,11.612 c1.657,3.734,3.37,7.596,3.37,11.779c0,3.568-1.211,6.554-2.131,8.307c4.252-0.321,14.693-1.812,17.645-8.7 c0.217-0.51,0.809-0.745,1.312-0.525c0.508,0.217,0.743,0.805,0.525,1.312C22.821,59.887,6.448,60,5.753,60z"/><circle cx="16" cy="18" r="4" fill="#8b8e98"/><path fill="#8d6c9f" d="M16,23c-2.757,0-5-2.243-5-5s2.243-5,5-5s5,2.243,5,5S18.757,23,16,23z M16,15c-1.654,0-3,1.346-3,3 s1.346,3,3,3s3-1.346,3-3S17.654,15,16,15z"/><path fill="#8d6c9f" d="M47,48.409c-2.03,0-3.682-1.651-3.682-3.682c0-0.553,0.447-1,1-1s1,0.447,1,1 c0,0.928,0.754,1.682,1.682,1.682s1.682-0.754,1.682-1.682c0-0.462-0.258-0.699-0.94-1.212C47.006,42.965,46,42.21,46,40.704V34 c0-0.553,0.447-1,1-1s1,0.447,1,1v6.704c0,0.462,0.258,0.699,0.94,1.212c0.735,0.551,1.741,1.306,1.741,2.812 C50.682,46.758,49.03,48.409,47,48.409z"/><path fill="#e2e9f7" d="M51,33.5c0,2.5-2.084,7.5-8,7.5c-5.333,0-8-3.711-8-6.185C35,32.185,36.26,31,36.26,31 S39,32.25,43,32.25S51,31,51,31S51,32.25,51,33.5z"/><path fill="#8d6c9f" d="M43,42c-5.872,0-9-4.173-9-7.185c0-2.978,1.413-4.393,1.575-4.544c0.295-0.277,0.731-0.35,1.1-0.182 c0.023,0.011,2.614,1.16,6.325,1.16c3.804,0,7.663-1.192,7.702-1.204c0.305-0.097,0.635-0.04,0.891,0.148S52,30.682,52,31v2.5 C52,36.928,49.14,42,43,42z M36.607,32.207C36.336,32.686,36,33.537,36,34.815C36,36.623,38.054,40,43,40c5.237,0,7-4.464,7-6.5 v-1.19c-1.544,0.385-4.254,0.94-7,0.94C40.04,33.25,37.737,32.603,36.607,32.207z"/><circle cx="40.5" cy="36.5" r="1.5" fill="#8d6c9f"/><path fill="#efd8be" d="M28,51c-2.222,0-4.545-1.952-4.545-4.173c0-2.222,1.801-4.023,4.023-4.023S31,43.778,31,46L28,51z"/><path fill="#8d6c9f" d="M32,46c0,0.44-0.29,0.81-0.68,0.94c-0.34-0.04-0.7-0.13-1.05-0.25C30.11,46.51,30,46.27,30,46 c0-0.41-0.04-0.81-0.2-1.15c-0.25-0.58-0.84-1.01-2.12-1.04c-0.06-0.01-0.13-0.01-0.2-0.01c-0.57,0-1.1,0.16-1.55,0.44 c-0.03-0.03-0.06-0.05-0.09-0.07c-0.19,0.11-0.34,0.21-0.45,0.32c-0.35,0.31-0.66,1.04-0.74,1.28c-0.13,0.33-0.2,0.69-0.2,1.06 C24.45,48.4,26.24,50,28,50c0.55,0,1,0.45,1,1s-0.45,1-1,1c-2.9,0-5.55-2.47-5.55-5.17c0-0.32,0.03-0.63,0.09-0.92 c0.2-1.12,0.79-2.11,1.61-2.84c0.51-0.45,1.11-0.8,1.77-1.01c0.05-0.02,0.1-0.04,0.15-0.05c0.45-0.14,0.92-0.21,1.41-0.21 c0.58,0,1.11,0.06,1.58,0.19C30.95,42.46,32,43.87,32,46z"/><path fill="#b6b6ef" d="M56.974,28.226c0-8.485-0.701-12.75-8.053-15.932c2.684-2.655,6.711-2.655,6.711-2.655 s-3.268-2.655-9.395-2.655c-5.368,0-8.053,1.328-8.053,1.328s0-2.655,4.026-5.311c-8.577,0-21.707,3.81-24.158,15.932 c0,0-8.053,1.328-8.053,10.621C10,36.827,15.947,45,24,45c0,0,0.051-1.27,2-2c1.078,0.965,4.013,3,5.974,3 c0,0-1.843-2.008-2.514-7.153c-0.647-4.958-2.363-9.525-6.039-11.949c4.026,0,6.711,1.328,6.711,1.328s-1.576-5.426-4.026-6.638 c0,0,5.368,0,11.378,4.445C43.769,30.679,51.605,40.175,61,40.175C61,40.175,56.974,37.166,56.974,28.226z"/><g><path fill="#a1a1e2" d="M15,29.554c0-2.388,0.813-3.79,1.748-4.613l0,0c1.584-0.683,2.209-2.614,1.31-4.087 c-0.005-0.009-0.011-0.018-0.017-0.027c-0.628-1.008-2.01-1.196-2.959-0.483C13.144,21.802,10,24.886,10,29.554 c0,5.15,3.365,10.995,8.188,13.969c0.972,0.599,2.245,0.293,2.806-0.702l0,0c0.777-1.381,0.371-3.1-0.905-4.039 C17.149,36.615,15,32.77,15,29.554z"/></g><g><path fill="#8d6c9f" d="M61.6,39.37c-0.04-0.02-3.63-2.8-3.63-11.14c0-8.31-0.74-12.84-7.17-16.16 c2.22-1.4,4.8-1.43,4.83-1.43c0.42,0,0.8-0.27,0.94-0.67c0.15-0.4,0.02-0.84-0.31-1.11c-0.14-0.11-3.62-2.88-10.02-2.88 c-2.88,0-5.04,0.38-6.45,0.74c0.49-0.8,1.37-1.83,2.97-2.89c0.37-0.24,0.54-0.69,0.41-1.12C43.04,2.29,42.65,2,42.21,2 c-7.95,0-22.01,3.41-25,16.11C15.13,18.71,9,21.19,9,29.55C9,36.87,14.7,45,22.54,45.91C23.02,45.97,23.5,46,24,46 c0.25,0,0.48-0.08,0.65-0.23c0.08-0.24,0.39-0.97,0.74-1.28c0.11-0.11,0.26-0.21,0.45-0.32c0.03,0.02,0.06,0.04,0.09,0.07 c0.99,0.77,2.68,1.91,4.34,2.45c0.35,0.12,0.71,0.21,1.05,0.25c0.22,0.04,0.44,0.06,0.65,0.06c0.4,0,0.75-0.23,0.91-0.59 c0.16-0.36,0.1-0.79-0.16-1.08c-0.02-0.02-1.66-1.92-2.27-6.61c-0.59-4.57-1.97-8.11-4.11-10.57c2.06,0.35,3.33,0.96,3.35,0.97 c0.35,0.18,0.78,0.13,1.08-0.13c0.31-0.25,0.43-0.66,0.32-1.04c-0.11-0.4-0.87-2.91-2.19-4.93c2.02,0.49,4.92,1.55,7.99,3.82 c1.49,1.1,3.1,2.51,4.8,3.99C47.23,35.68,53.52,41.17,61,41.17c0.43,0,0.81-0.27,0.95-0.68C62.08,40.08,61.94,39.63,61.6,39.37z M43,29.33c-1.73-1.52-3.36-2.95-4.92-4.1c-6.2-4.59-11.74-4.64-11.97-4.64c-0.47,0-0.87,0.32-0.98,0.77 c-0.1,0.45,0.12,0.92,0.53,1.12c1.07,0.53,2.11,2.38,2.82,4.1c-1.24-0.35-2.98-0.68-5.06-0.68c-0.44,0-0.83,0.29-0.96,0.71 c-0.12,0.42,0.04,0.88,0.41,1.12c3,1.98,4.88,5.76,5.6,11.25c0.15,1.14,0.36,2.14,0.59,3.01c0.26,0.95,0.54,1.74,0.82,2.39 c-1.19-0.58-2.45-1.44-3.21-2.13c-0.17-0.14-0.38-0.23-0.6-0.24C26.05,42,26.02,42,26,42c-0.04,0-0.08,0-0.12,0.01 c-0.08,0.01-0.16,0.02-0.23,0.05c-0.69,0.26-1.2,0.58-1.58,0.91c-0.38,0.34-0.62,0.7-0.78,1.01C16.21,43.51,11,36.15,11,29.55 c0-8.3,6.92-9.58,7.22-9.63c0.4-0.07,0.73-0.38,0.81-0.79C21.15,8.63,31.67,4.9,39.27,4.15c-2.06,2.19-2.09,4.06-2.09,4.16 c0,0.34,0.18,0.66,0.48,0.85c0.29,0.18,0.65,0.2,0.96,0.05c0.03-0.01,2.6-1.23,7.62-1.23c2.72,0,4.85,0.56,6.33,1.15 c-1.39,0.4-3.01,1.13-4.35,2.45c-0.24,0.24-0.34,0.57-0.28,0.9c0.06,0.32,0.28,0.6,0.58,0.73c6.78,2.93,7.45,6.64,7.45,15.02 c0,5.45,1.45,8.84,2.7,10.74C52.88,37.96,47.67,33.4,43,29.33z"/></g><g><path fill="none" d="M22.529,40.093C18.417,38.664,15,33.609,15,29.554c0-4.339,2.686-5.425,3.905-5.693 c0.223-0.029,0.439-0.073,0.648-0.13 M18.959,23.849h0.005H18.959"/><path fill="#8d6c9f" d="M18.641,39.884c-0.235,0-0.471-0.082-0.661-0.25c-0.414-0.365-0.454-0.997-0.089-1.411l1.322-1.5 c0.365-0.416,0.998-0.454,1.411-0.089c0.414,0.365,0.454,0.997,0.089,1.411l-1.322,1.5 C19.193,39.77,18.917,39.884,18.641,39.884z"/><path fill="#8d6c9f" d="M15.494,35.901c-0.356,0-0.7-0.19-0.881-0.525c-0.263-0.486-0.081-1.093,0.405-1.354l1.761-0.949 c0.488-0.264,1.093-0.08,1.354,0.405c0.263,0.486,0.081,1.093-0.405,1.354l-1.761,0.949 C15.816,35.863,15.654,35.901,15.494,35.901z"/><path fill="#8d6c9f" d="M14.019,30.964c-0.53,0-0.973-0.417-0.998-0.953c-0.025-0.552,0.4-1.02,0.952-1.046l1.998-0.094 c0.558-0.026,1.02,0.4,1.046,0.952c0.025,0.552-0.4,1.02-0.952,1.046l-1.998,0.094C14.051,30.964,14.034,30.964,14.019,30.964z"/><path fill="#8d6c9f" d="M17.03,27.085c-0.225,0-0.451-0.075-0.639-0.23l-1.538-1.278 c-0.424-0.354-0.482-0.984-0.13-1.409c0.354-0.423,0.981-0.484,1.409-0.13l1.538,1.278c0.424,0.354,0.482,0.984,0.13,1.409 C17.603,26.962,17.317,27.085,17.03,27.085z"/></g><g><path fill="#8d6c9f" d="M32.001,47c-0.08,0-0.162-0.01-0.243-0.03C23.1,44.806,23,39.236,23,39c0-0.553,0.447-1,1-1 c0.549,0,0.995,0.442,1,0.99c0.005,0.199,0.204,4.28,7.242,6.04c0.536,0.134,0.862,0.677,0.728,1.212 C32.856,46.697,32.449,47,32.001,47z M25,39h0.01H25z"/></g></svg>