<svg xmlns="http://www.w3.org/2000/svg"  viewBox="0 0 64 64" width="64px" height="64px"><path fill="#f9dd8f" d="M50.636,19.098c-1.295-2.375-4.858-2.884-7.773-2.884c-0.972-1.696-3.239-2.714-5.182-2.714 c-1.943-3.393-6.477-4.071-6.477-4.071S22.608,4,16.425,4C11.479,4,4,6.513,4,12.991c0,5.787,8.266,18.965,10.029,21.709 c-0.722,0.715-0.961,1.748-0.961,2.55c0,3.393,3.886,4.75,5.182,7.464c1.215,2.547,2.157,3.883,3.873,4.04l0.013,0.031 c0,2.591,0,8.143,0,8.143S25.433,61,40.273,61c0,0,1.898-4.418,3.357-5.182c2.473-1.296,3.71-2.591,4.946-5.182 c1.237-2.591,4.652-2.653,4.652-5.244c0-1.296,0-19.432,0-19.432L50.636,19.098z"/><path fill="#8d6c9f" d="M40.272,62c-14.886,0-18.545-3.987-18.913-4.442c-0.144-0.178-0.223-0.399-0.223-0.629v-7.357 c-1.814-0.579-2.802-2.355-3.789-4.427c-0.437-0.914-1.274-1.694-2.162-2.521c-1.461-1.36-3.117-2.902-3.117-5.373 c0-0.496,0.082-1.61,0.733-2.614C10.057,30.308,3,18.631,3,12.991C3,5.713,11.234,3,16.425,3c5.984,0,13.855,4.686,15.144,5.478 c0.944,0.182,4.66,1.066,6.682,4.045c2.059,0.165,4.05,1.209,5.154,2.697c4.2,0.089,6.928,1.231,8.11,3.4 c0.022,0.04,0.041,0.082,0.058,0.125l2.591,6.862c0.043,0.113,0.064,0.232,0.064,0.354v19.432c0,1.958-1.382,2.854-2.601,3.646 c-0.879,0.57-1.709,1.108-2.149,2.029c-1.321,2.771-2.73,4.246-5.385,5.637c-0.706,0.37-2.056,2.723-2.901,4.69 C41.033,61.762,40.672,62,40.272,62z M23.137,56.501c0.926,0.759,4.972,3.4,16.488,3.496c0.643-1.394,2.125-4.323,3.54-5.064 c2.274-1.191,3.37-2.34,4.508-4.727c0.683-1.431,1.894-2.216,2.865-2.846c1.2-0.779,1.689-1.175,1.689-1.968V26.144l-2.5-6.622 c-1.098-1.905-4.331-2.308-6.864-2.308c-0.358,0-0.689-0.191-0.868-0.503c-0.722-1.261-2.576-2.211-4.313-2.211 c-0.358,0-0.689-0.191-0.868-0.503c-1.683-2.938-5.717-3.573-5.758-3.579c-0.137-0.021-0.269-0.069-0.386-0.144 C30.587,10.222,22.243,5,16.425,5C12.008,5,5,7.17,5,12.991c0,4.282,5.317,14.08,9.871,21.169c0.255,0.396,0.197,0.918-0.138,1.251 c-0.617,0.61-0.665,1.562-0.665,1.839c0,1.601,1.149,2.671,2.479,3.91c0.985,0.917,2.005,1.866,2.604,3.123 c1.206,2.528,1.95,3.373,3.062,3.476c0.362,0.034,0.679,0.262,0.824,0.596c0.056,0.126,0.098,0.294,0.098,0.432V56.501z"/><path fill="#f9dd8f" d="M51.932,33.857c0,0,2.044,1.367,2.827,3.824C55.994,41.568,61,41.382,61,42.679 c0,1.018-2.105,2.036-10.202,2.036c-2.473,0-4.726,1.095-5.344,2.714L51.932,33.857z"/><path fill="#8d6c9f" d="M45.454,48.429c-0.119,0-0.239-0.021-0.356-0.065c-0.517-0.197-0.774-0.775-0.578-1.291 c0.755-1.978,3.337-3.358,6.278-3.358c6.145,0,8.225-0.595,8.913-0.938c-0.233-0.104-0.524-0.215-0.765-0.307 c-1.685-0.646-4.23-1.62-5.141-4.484c-0.167-0.526,0.124-1.089,0.65-1.256c0.528-0.17,1.088,0.124,1.256,0.65 c0.618,1.946,2.466,2.653,3.949,3.222C60.864,41.062,62,41.497,62,42.679c0,2.156-3.245,3.035-11.202,3.035 c-2.062,0-3.959,0.891-4.409,2.071C46.236,48.184,45.856,48.429,45.454,48.429z M60.11,42.992h0.01H60.11z"/><ellipse cx="13.927" cy="11.853" fill="#8d6c9f" rx="2.003" ry="2.099"/><ellipse cx="12.424" cy="18.673" fill="#8d6c9f" rx="1.502" ry="1.574"/><path fill="#7bbeeb" d="M41.62,24.456c0.236-1.232,1.461-2.253,2.381-2.67c0.106-0.049,5.519-2.378,5.519-2.378 l1.117,11.734l-9.068-4.071v-2.615"/><path fill="#8d6c9f" d="M51.795,32.759l-11.227-5.04v-3.263h1.052l-0.982-0.188c0.297-1.556,1.696-2.825,2.951-3.393 c0.104-0.048,4.264-1.838,5.535-2.386l1.261-0.542L51.795,32.759z M42.568,26.424l6.91,3.103l-0.824-8.656 c-1.582,0.682-4.106,1.769-4.242,1.829c-0.773,0.35-1.662,1.173-1.81,1.944l-0.034-0.007V26.424z"/><path fill="#8d6c9f" d="M13.927,34.937c0.625-1.378,5.832-3.709,12.625-4.988l-0.465-2.67 c-5.403,1.033-10.682,3.079-13.471,5.161C13.234,33.453,13.622,34.463,13.927,34.937z"/><ellipse cx="51.485" cy="25.17" fill="#85cbf8" rx="4.507" ry="5.972"/><path fill="#8d6c9f" d="M51.485,32.143c-3.036,0-5.507-3.128-5.507-6.972c0-3.845,2.471-6.973,5.507-6.973 s5.507,3.128,5.507,6.973C56.992,29.015,54.521,32.143,51.485,32.143z M51.485,20.198c-1.934,0-3.507,2.23-3.507,4.973 c0,2.741,1.573,4.972,3.507,4.972s3.507-2.23,3.507-4.972C54.992,22.429,53.419,20.198,51.485,20.198z"/><path fill="#f9dd8f" d="M48.045,31.143c0,0-1.295,0.679-1.295,2.036c0,3.223,4.226,2.646,7.047,3.393 c2.562,0.679,3.245,1.357,4.1,1.357c1.367,0,0-6.786-4.1-9.5s-9.567-2.714-9.567-2.714h-2.662v2.714L48.045,31.143z"/><path fill="#8d6c9f" d="M57.897,38.929c-0.618,0-1.116-0.212-1.747-0.48c-0.573-0.244-1.358-0.579-2.609-0.91 c-0.661-0.175-1.423-0.272-2.229-0.375c-2.348-0.3-5.562-0.71-5.562-3.984c0-1.549,1.151-2.565,1.832-2.922 c0.49-0.259,1.094-0.066,1.35,0.422c0.255,0.486,0.069,1.087-0.414,1.346c-0.046,0.025-0.768,0.441-0.768,1.154 c0,1.295,0.952,1.635,3.814,2c0.835,0.106,1.699,0.217,2.488,0.426c1.391,0.368,2.253,0.735,2.882,1.004 c0.194,0.082,0.353,0.149,0.486,0.2c-0.01-1.48-1.286-5.634-4.176-7.546c-3.805-2.52-8.963-2.549-9.015-2.549h-2.662 c-0.553,0-1-0.447-1-1s0.447-1,1-1h2.662c0.235,0,5.817,0.033,10.118,2.881c3.857,2.553,5.533,8.219,4.938,10.196 C59.034,38.63,58.403,38.929,57.897,38.929z"/><path fill="#7bbeeb" d="M37.557,20.974c-0.361-0.441-0.933-0.615-1.461-0.441c-2.13,0.7-7.45,2.45-7.49,2.467 c-1.483,0.597-2.583,2.42-2.583,5.346c0,3.044,2.095,5.511,4.077,5.511h7.582l4.289-6.265L37.557,20.974z"/><path fill="#8d6c9f" d="M38.209,34.857H30.1c-2.705,0-5.077-3.043-5.077-6.512c0-3.119,1.2-5.465,3.21-6.273 c0.029-0.014,0.063-0.028,7.551-2.49c0.925-0.304,1.923-0.005,2.548,0.759l0.058,0.078l4.789,7.18L38.209,34.857z M36.509,21.466 c-0.033,0-0.067,0.005-0.101,0.017c-2.086,0.686-7.238,2.38-7.467,2.46c-1.188,0.479-1.919,2.13-1.919,4.403 c0,2.499,1.684,4.512,3.077,4.512h7.055l3.609-5.272L36.76,21.58C36.688,21.506,36.6,21.466,36.509,21.466z"/><ellipse cx="37.964" cy="27.067" fill="#85cbf8" rx="5.008" ry="6.82"/><path fill="#8d6c9f" d="M37.964,34.888c-3.312,0-6.008-3.508-6.008-7.82s2.695-7.82,6.008-7.82s6.008,3.508,6.008,7.82 S41.276,34.888,37.964,34.888z M37.964,21.247c-2.21,0-4.008,2.611-4.008,5.82s1.798,5.82,4.008,5.82s4.008-2.611,4.008-5.82 S40.174,21.247,37.964,21.247z"/><g><path fill="#8d6c9f" d="M18.934,18.1c-0.145,0-0.291-0.031-0.43-0.098c-0.499-0.238-0.71-0.835-0.472-1.333 c0.052-0.109,1.314-2.668,4.908-2.668c0.553,0,1,0.447,1,1s-0.447,1-1,1c-2.309,0-3.096,1.515-3.104,1.529 C19.665,17.89,19.308,18.1,18.934,18.1z"/></g><g><path fill="#8d6c9f" d="M20.937,22.293c-0.146,0-0.294-0.031-0.435-0.1c-0.494-0.24-0.704-0.831-0.467-1.327 c0.834-1.749,3.645-4.54,8.3-2.59c0.509,0.213,0.749,0.799,0.535,1.309c-0.213,0.509-0.797,0.751-1.309,0.535 c-3.971-1.663-5.556,1.272-5.725,1.613C21.663,22.087,21.307,22.293,20.937,22.293z"/></g><g><path fill="#8d6c9f" d="M38.967,51.676c-0.374,0-0.731-0.21-0.903-0.569c-1.035-2.168-0.057-4.104,1.184-6.554 c0.258-0.51,0.535-1.058,0.819-1.652c0.775-1.624,0.005-3.324-0.003-3.341c-0.23-0.499-0.017-1.094,0.481-1.328 c0.495-0.23,1.09-0.024,1.326,0.472c0.05,0.104,1.194,2.558,0,5.059c-0.291,0.61-0.575,1.172-0.84,1.694 c-1.23,2.433-1.75,3.56-1.163,4.789c0.238,0.498,0.027,1.095-0.472,1.333C39.258,51.645,39.111,51.676,38.967,51.676z"/></g><g><path fill="#8d6c9f" d="M23.942,45.38c-0.553,0-1-0.447-1-1c0-1.628-0.706-2.435-0.735-2.468 c-0.364-0.407-0.341-1.037,0.061-1.407c0.401-0.372,1.02-0.357,1.396,0.037c0.131,0.137,1.279,1.408,1.279,3.838 C24.942,44.933,24.495,45.38,23.942,45.38z"/></g><g><path fill="#ffcc80" d="M13.927,34.937c0,0,4.006-2.099,6.009,1.049"/><path fill="#8d6c9f" d="M19.938,36.986c-0.33,0-0.654-0.163-0.845-0.463c-1.492-2.347-4.572-0.769-4.702-0.701 c-0.486,0.259-1.093,0.066-1.35-0.422c-0.257-0.489-0.067-1.094,0.422-1.35c1.666-0.872,5.342-1.705,7.317,1.398 c0.297,0.466,0.159,1.084-0.307,1.381C20.307,36.936,20.121,36.986,19.938,36.986z"/></g></svg>